<?xml version="1.0" encoding="UTF-8" standalone="no"?>
<!-- Created with Inkscape (http://www.inkscape.org/) -->

<svg
   xmlns:dc="http://purl.org/dc/elements/1.1/"
   xmlns:cc="http://creativecommons.org/ns#"
   xmlns:rdf="http://www.w3.org/1999/02/22-rdf-syntax-ns#"
   xmlns:svg="http://www.w3.org/2000/svg"
   xmlns="http://www.w3.org/2000/svg"
   xmlns:sodipodi="http://sodipodi.sourceforge.net/DTD/sodipodi-0.dtd"
   xmlns:inkscape="http://www.inkscape.org/namespaces/inkscape"
   width="200"
   height="30"
   viewBox="0 0 52.916665 7.9375001"
   version="1.1"
   id="svg778"
   inkscape:version="0.92.3 (2405546, 2018-03-11)"
   sodipodi:docname="בנק הפועלים 2001 אנגלית.svg">
  <defs
     id="defs772">
    <clipPath
       clipPathUnits="userSpaceOnUse"
       id="clipPath46">
      <path
         d="M 0,0 H 609.449 V 793.701 H 0 Z"
         id="path44"
         inkscape:connector-curvature="0" />
    </clipPath>
  </defs>
  <sodipodi:namedview
     id="base"
     pagecolor="#ffffff"
     bordercolor="#666666"
     borderopacity="1.0"
     inkscape:pageopacity="0.0"
     inkscape:pageshadow="2"
     inkscape:zoom="3.959798"
     inkscape:cx="81.788773"
     inkscape:cy="43.520222"
     inkscape:document-units="mm"
     inkscape:current-layer="layer1"
     showgrid="false"
     fit-margin-top="0"
     fit-margin-left="0"
     fit-margin-right="0"
     fit-margin-bottom="0"
     units="px"
     inkscape:window-width="454"
     inkscape:window-height="405"
     inkscape:window-x="904"
     inkscape:window-y="0"
     inkscape:window-maximized="0" />
  <metadata
     id="metadata775">
    <rdf:RDF>
      <cc:Work
         rdf:about="">
        <dc:format>image/svg+xml</dc:format>
        <dc:type
           rdf:resource="http://purl.org/dc/dcmitype/StillImage" />
        <dc:title />
      </cc:Work>
    </rdf:RDF>
  </metadata>
  <g
     inkscape:label="Layer 1"
     inkscape:groupmode="layer"
     id="layer1"
     transform="translate(-29.726363,-286.18433)">
    <path
       inkscape:connector-curvature="0"
       id="path106"
       style="fill:#ed1c2e;fill-opacity:1;fill-rule:nonzero;stroke:none;stroke-width:0.35277778"
       d="m 34.611953,286.66908 c -0.332669,-0.40534 -0.582789,-0.59407 -1.163814,-0.25893 l -2.877961,1.63583 c -0.665692,0.38629 -0.734836,1.04916 -0.401461,1.518 l 2.830336,4.09998 c 0.4953,0.71473 1.019528,0.39758 1.37795,-0.0113 l 2.731911,-3.08186 c 0.267758,-0.31151 0.334786,-0.54328 0.05574,-0.87948 z" />
    <g
       id="g146">
      <g
         transform="matrix(0.35277777,0,0,-0.35277777,10.292088,306.38306)"
         id="g42"
         clip-path="url(#clipPath46)">
        <g
           id="g48"
           transform="translate(144.6238,39.6881)">
          <path
             d="m 0,0 h -4.678 c -1.031,0 -1.783,0.19 -2.299,0.763 -0.508,0.567 -0.688,1.368 -0.503,2.435 0.203,1.178 0.663,2.027 1.367,2.566 0.705,0.54 1.722,0.818 3.07,0.819 1.262,0 1.847,-0.683 1.847,-0.683 l 0.197,1.233 C -0.934,7.51 -1.06,7.834 -1.35,8.077 -1.628,8.31 -2.043,8.41 -2.563,8.411 -3.129,8.412 -3.631,8.369 -4.073,8.291 -4.434,8.228 -4.819,8.129 -5.229,7.989 l 0.182,1.046 c 0.544,0.159 1.118,0.272 1.716,0.343 0.642,0.075 1.309,0.116 2.001,0.116 1.202,0 2.079,-0.234 2.658,-0.675 C 1.889,8.393 2.131,7.803 1.995,7.01 L 0.916,0.751 C 0.837,0.359 0.684,0 0,0 M -2.552,5.514 C -3.063,5.514 -3.477,5.336 -3.776,4.972 -4.063,4.621 -4.268,4.034 -4.405,3.24 -4.559,2.345 -4.596,1.696 -4.438,1.375 -4.264,1.017 -3.885,0.88 -3.422,0.88 c 0.256,0 0.51,0.034 0.762,0.099 0.252,0.066 0.453,0.145 0.634,0.277 l 0.632,3.585 c 0,0 -0.308,0.673 -1.158,0.673"
             style="fill:#004990;fill-opacity:1;fill-rule:nonzero;stroke:none"
             id="path50"
             inkscape:connector-curvature="0" />
        </g>
        <g
           id="g52"
           transform="translate(175.6739,39.6881)">
          <path
             d="m 0,0 h -4.679 c -1.031,0 -1.783,0.19 -2.298,0.763 -0.508,0.567 -0.688,1.368 -0.504,2.435 0.205,1.178 0.664,2.027 1.369,2.566 0.703,0.54 1.721,0.818 3.069,0.819 1.264,0 1.848,-0.683 1.848,-0.683 L -1,7.133 C -0.935,7.51 -1.06,7.834 -1.35,8.077 -1.629,8.31 -2.044,8.41 -2.562,8.411 -3.128,8.412 -3.631,8.369 -4.073,8.291 -4.434,8.228 -4.819,8.129 -5.228,7.989 l 0.181,1.046 c 0.544,0.159 1.117,0.272 1.716,0.343 0.643,0.075 1.309,0.116 2,0.116 1.204,0 2.079,-0.234 2.659,-0.675 C 1.89,8.393 2.13,7.803 1.994,7.01 L 0.916,0.751 C 0.838,0.359 0.683,0 0,0 m -2.553,5.514 c -0.51,0 -0.923,-0.178 -1.223,-0.542 C -4.064,4.621 -4.267,4.034 -4.405,3.24 -4.56,2.345 -4.596,1.696 -4.439,1.375 -4.263,1.017 -3.884,0.88 -3.422,0.88 c 0.257,0 0.509,0.034 0.761,0.099 0.252,0.066 0.453,0.145 0.635,0.277 l 0.631,3.585 c 0,0 -0.307,0.673 -1.158,0.673"
             style="fill:#004990;fill-opacity:1;fill-rule:nonzero;stroke:none"
             id="path54"
             inkscape:connector-curvature="0" />
        </g>
      </g>
      <path
         d="m 76.867111,288.81656 h -1.101725 l 0.144639,-0.88512 h 1.110544 z"
         style="fill:#004990;fill-opacity:1;fill-rule:nonzero;stroke:none;stroke-width:0.35277778"
         id="path58"
         inkscape:connector-curvature="0" />
      <path
         d="m 76.282911,292.11697 c -0.0314,0.15628 -0.09666,0.26494 -0.32385,0.26494 H 75.14485 l 0.5588,-3.25544 h 1.108075 z"
         style="fill:#004990;fill-opacity:1;fill-rule:nonzero;stroke:none;stroke-width:0.35277778"
         id="path70"
         inkscape:connector-curvature="0" />
      <g
         transform="matrix(0.35277777,0,0,-0.35277777,57.919804,292.11432)"
         id="g72">
        <path
           inkscape:connector-curvature="0"
           id="path74"
           style="fill:#004990;fill-opacity:1;fill-rule:nonzero;stroke:none"
           d="m 0,0 c -0.088,-0.44 -0.306,-0.759 -0.845,-0.759 h -2.332 l 1.284,7.283 c 0.141,0.817 -0.61,1.004 -1.193,1.004 -0.173,0 -0.37,-0.015 -0.59,-0.037 C -3.899,7.468 -4.051,7.44 -4.294,7.376 l -1.431,-8.135 h -3.032 l 2.236,12.617 h 3.02 L -4.149,8.199 c 0.585,0.276 1.356,0.536 2.536,0.536 C -0.574,8.736 0.159,8.538 0.626,8.185 1.077,7.845 1.291,7.369 1.176,6.7 Z" />
      </g>
      <g
         transform="matrix(0.35277777,0,0,-0.35277777,74.428111,292.11533)"
         id="g76">
        <path
           inkscape:connector-curvature="0"
           id="path78"
           style="fill:#004990;fill-opacity:1;fill-rule:nonzero;stroke:none"
           d="m 0,0 c -0.089,-0.412 -0.249,-0.756 -0.886,-0.756 h -2.34 l 2.213,12.616 h 3.094 z" />
      </g>
      <g
         transform="matrix(0.35277777,0,0,-0.35277777,81.977062,292.11697)"
         id="g80">
        <path
           inkscape:connector-curvature="0"
           id="path82"
           style="fill:#004990;fill-opacity:1;fill-rule:nonzero;stroke:none"
           d="m 0,0 c -0.115,-0.532 -0.354,-0.751 -0.887,-0.751 h -2.28 l 1.245,7.085 c 0.048,0.279 -0.06,0.528 -0.272,0.726 -0.212,0.194 -0.51,0.277 -0.868,0.277 -0.527,0 -0.942,-0.083 -1.385,-0.187 0.091,-0.233 0.132,-0.501 0.071,-0.851 l -1.238,-7.055 h -3.042 l 1.245,7.09 c 0.054,0.312 -0.024,0.598 -0.268,0.78 -0.217,0.162 -0.553,0.223 -0.965,0.223 -0.189,0 -0.364,-0.011 -0.527,-0.03 C -9.33,7.29 -9.465,7.261 -9.708,7.19 l -1.395,-7.946 h -3.06 l 1.617,9.233 h 2.513 l 0.168,-0.528 c 0.527,0.237 0.955,0.563 1.411,0.656 0.464,0.092 0.974,0.141 1.533,0.141 0.654,0 1.137,-0.062 1.461,-0.178 0.321,-0.114 0.584,-0.298 0.898,-0.672 0.42,0.297 0.828,0.481 1.343,0.633 0.513,0.15 1,0.223 1.46,0.223 1.062,0 1.834,-0.187 2.348,-0.532 0.484,-0.327 0.7,-0.797 0.585,-1.466 z" />
      </g>
      <g
         transform="matrix(0.35277777,0,0,-0.35277777,68.736288,291.97743)"
         id="g84">
        <path
           inkscape:connector-curvature="0"
           id="path86"
           style="fill:#004990;fill-opacity:1;fill-rule:nonzero;stroke:none"
           d="m 0,0 c -0.097,-0.11 -0.195,-0.21 -0.298,-0.3 -0.838,-0.729 -1.992,-1.092 -3.481,-1.092 -1.461,0 -2.445,0.379 -3.006,1.117 -0.065,0.083 -0.122,0.176 -0.176,0.276 -0.411,0.777 -0.512,1.962 -0.27,3.36 0.279,1.612 0.921,3.119 1.747,3.86 0.831,0.747 1.988,1.125 3.484,1.125 1.594,0 2.604,-0.388 3.112,-1.094 C 1.631,6.53 1.757,5.198 1.478,3.591 1.227,2.141 0.698,0.808 0,0 m -4.205,0 c 0.157,-0.185 0.399,-0.275 0.703,-0.275 0.295,0 0.54,0.094 0.734,0.274 0.114,0.103 0.21,0.237 0.29,0.396 0.21,0.418 0.518,1.69 0.765,3.115 0.256,1.483 0.386,2.629 0.336,3.019 -0.06,0.478 -0.398,0.704 -0.898,0.704 -0.493,0 -0.85,-0.221 -1.053,-0.652 C -3.515,6.184 -3.759,5.037 -4.016,3.556 -4.263,2.121 -4.448,0.835 -4.388,0.43 -4.361,0.252 -4.299,0.111 -4.205,0" />
      </g>
      <g
         transform="matrix(0.35277777,0,0,-0.35277777,65.227667,292.0907)"
         id="g88">
        <path
           inkscape:connector-curvature="0"
           id="path90"
           style="fill:#004990;fill-opacity:1;fill-rule:nonzero;stroke:none"
           d="m 0,0 c -0.175,-0.172 -0.376,-0.329 -0.603,-0.469 -0.665,-0.409 -1.479,-0.601 -2.445,-0.601 -1.046,0 -1.774,0.134 -2.048,0.309 l -0.625,-3.46 h -3.035 l 2.238,12.624 h 2.514 l 0.135,-0.494 c 0,0 0.891,0.52 1.478,0.638 0.44,0.089 0.952,0.12 1.49,0.12 0.875,0 1.501,-0.185 1.912,-0.523 C 1.415,7.81 1.631,7.332 1.65,6.679 1.655,6.43 1.638,6.089 1.595,5.654 1.503,4.75 1.261,3.268 1.056,2.394 0.964,2.013 0.856,1.604 0.718,1.17 0.575,0.722 0.337,0.332 0,0 m -4.534,0 c 0.254,-0.064 0.555,-0.106 0.779,-0.106 0.21,0 0.475,0.034 0.655,0.105 0.091,0.036 0.177,0.08 0.261,0.136 0.253,0.164 0.4,0.356 0.48,0.704 l 0.857,4.651 c 0.068,0.346 0.108,0.657 0.095,0.929 -0.014,0.309 -0.159,0.594 -0.351,0.776 -0.198,0.185 -0.583,0.258 -0.921,0.258 -0.5,0 -1.018,-0.244 -1.018,-0.244 L -4.936,0.15 C -4.845,0.093 -4.701,0.042 -4.534,0" />
      </g>
      <g
         transform="matrix(0.35277777,0,0,-0.35277777,44.663297,292.38198)"
         id="g92">
        <path
           inkscape:connector-curvature="0"
           id="path94"
           style="fill:#004990;fill-opacity:1;fill-rule:nonzero;stroke:none"
           d="m 0,0 h -4.678 c -1.031,0 -1.783,0.19 -2.298,0.763 -0.508,0.567 -0.689,1.368 -0.503,2.435 0.203,1.178 0.663,2.027 1.367,2.566 0.705,0.54 1.721,0.818 3.07,0.819 1.263,0 1.847,-0.683 1.847,-0.683 l 0.197,1.233 C -0.934,7.51 -1.059,7.834 -1.35,8.077 -1.629,8.31 -2.043,8.41 -2.562,8.411 -3.127,8.412 -3.63,8.369 -4.073,8.291 -4.433,8.228 -4.818,8.129 -5.228,7.989 l 0.181,1.046 c 0.545,0.159 1.119,0.272 1.717,0.343 0.642,0.075 1.309,0.116 2,0.116 1.203,0 2.08,-0.234 2.659,-0.675 C 1.892,8.393 2.132,7.803 1.994,7.01 L 0.917,0.751 C 0.838,0.359 0.684,0 0,0 M -2.551,5.514 C -3.063,5.514 -3.476,5.336 -3.776,4.972 -4.062,4.621 -4.267,4.034 -4.404,3.24 -4.559,2.345 -4.595,1.696 -4.438,1.375 -4.264,1.017 -3.884,0.88 -3.42,0.88 c 0.255,0 0.508,0.034 0.76,0.099 0.252,0.066 0.452,0.145 0.634,0.277 l 0.633,3.585 c 0,0 -0.308,0.673 -1.158,0.673" />
      </g>
      <g
         transform="matrix(0.35277777,0,0,-0.35277777,48.520004,292.38198)"
         id="g96">
        <path
           inkscape:connector-curvature="0"
           id="path98"
           style="fill:#004990;fill-opacity:1;fill-rule:nonzero;stroke:none"
           d="m 0,0 h -2.348 l 1.251,7.059 C -1.042,7.379 -1.129,7.854 -1.394,8.036 -1.627,8.197 -1.948,8.264 -2.333,8.264 -2.5,8.264 -2.692,8.251 -2.91,8.226 -3.122,8.205 -3.279,8.176 -3.515,8.111 L -4.933,0 h -3.078 l 1.615,9.228 h 2.561 l 0.121,-0.363 c 0.666,0.255 1.137,0.428 1.557,0.506 0.426,0.08 0.904,0.122 1.436,0.122 1.025,0 1.752,-0.199 2.219,-0.557 C 1.947,8.59 2.171,8.105 2.053,7.427 L 0.879,0.781 C 0.817,0.438 0.658,0 0,0" />
      </g>
      <path
         d="m 51.862469,290.47628 1.307042,1.90782 h -1.059392 l -1.172986,-1.78576 -0.2667,1.51518 c -0.03634,0.15699 -0.0889,0.26847 -0.309386,0.26847 l -0.823736,3.5e-4 0.792691,-4.451 H 51.4155 l -0.457906,2.55129 1.283758,-1.35643 h 0.912636 z"
         style="fill:#004990;fill-opacity:1;fill-rule:nonzero;stroke:none;stroke-width:0.35277778"
         id="path102"
         inkscape:connector-curvature="0" />
      <g
         transform="matrix(0.35277777,0,0,-0.35277777,40.175998,289.46151)"
         id="g108">
        <path
           inkscape:connector-curvature="0"
           id="path110"
           style="fill:#004990;fill-opacity:1;fill-rule:nonzero;stroke:none"
           d="m 0,0 c -0.437,0 -0.732,-0.118 -1.002,-0.171 l -1.219,-6.875 c 0.199,-0.141 0.438,-0.294 1.149,-0.294 0.325,0 1.344,0.112 1.559,1.409 l 0.821,4.529 C 1.534,-0.018 0.378,0 0,0 M 4.277,-2.108 C 4.239,-2.547 4.185,-2.994 4.107,-3.449 3.956,-4.317 3.757,-5.174 3.495,-6.005 3.268,-6.725 2.813,-7.296 2.124,-7.72 1.436,-8.142 0.551,-8.274 -0.532,-8.274 h -4.066 c -0.67,0 -0.87,0.423 -0.8,0.771 l 2.082,11.84 H -0.22 L -0.871,0.612 c 0.545,0.286 0.856,0.391 1.288,0.474 0.434,0.084 0.894,0.129 1.382,0.129 1.392,0 2.517,-0.44 2.567,-2.019 C 4.375,-1.077 4.314,-1.67 4.277,-2.108" />
      </g>
    </g>
  </g>
</svg>
