<?xml version="1.0" encoding="UTF-8"?>
<!-- Generator: Adobe Illustrator 21.1.0, SVG Export Plug-In . SVG Version: 6.00 Build 0)  -->
<svg id="Layer_1" width="211" height="37.200001" version="1.1" viewBox="0 0 211 37.200001" xml:space="preserve" xmlns="http://www.w3.org/2000/svg">
<style id="style839" type="text/css">
	.st0{fill:#707071;}
	.st1{fill:#BF8B2D;}
</style>
<g id="g845" transform="translate(-33.3 -.5)">
	<path id="path841" class="st0" d="m185.2 36.2 0.1-1.6h3.6l0.3-4.7h-3.3l0.1-1.6h4.9l-0.4 6.3h0.6l-0.1 1.6zm-7.8-1.6c-0.1 0.9-0.8 1.6-1.7 1.6h-1.9l0.1-1.6h1.9l0.3-4.7h-1.1l0.1-1.6h2.7zm-10.9-0.8c-0.1 1.3-1.2 2.4-2.5 2.4h-0.7l0.1-1.6h0.7c0.4 0 0.8-0.3 0.8-0.8l0.3-3.9h-3.9l0.1-1.6h5.5zm-5.3-2.5h1.6l-0.5 6.4h-1.6zm-10.2 4.9-1.8-3.7-0.7 0.6-0.2 3.1h-1.6l0.3-3.9 1.6-1.3-1.3-2.7h1.8l1.8 3.7 0.6-0.5 0.2-3.3h1.6l-0.3 4-1.4 1.1 1.3 2.7h-1.9zm-13.9 0 0.4-6.3h-1.1l0.1-1.6h2.7l-0.5 7.9zm-10.5 0 0.4-6.3h-2l-0.4 6.3h-2.4l0.1-1.6h0.8l0.3-4.7h-0.6l0.1-1.6h5.8l-0.5 7.9zm-23.9 0 0.1-1.6h1.1l0.3-4.7h-2.5l-0.4 6.3h-1.6l0.4-6.3h-0.6l0.1-1.6h2.2l-0.1 0.8 1.5-0.8h2.6l-0.5 7.9zm-11.7-2.7c-0.4 1.8-2.1 2.7-3.2 2.7h-2.7l-0.6-7.9h1.6l0.3 4.2 0.9-4.2h1.7l-1 4.3h-1.6l0.2 2h1.4c0.7 0 1.4-0.6 1.5-1.1l1.2-5.2h1.6zm-14.4-0.1c-0.1 1.3-1.5 2.7-2.8 2.7h-0.8l0.1-1.6h0.7c0.4 0 1.1-0.7 1.1-1.1l0.3-3.6h-3.6l0.2-3.1h1.6l-0.1 1.6h3.6zm-14.4-0.8 0.2-2.7h-1.1l0.1-1.6h2.7l-0.3 4.3zm-11.6 3.6 0.1-1.6h1.1l0.3-4.7h-2.5l-0.4 6.3h-1.6l0.4-6.3h-0.6l0.1-1.6h2.2l-0.1 0.8 1.5-0.8h2.6l-0.5 7.9zm-13 0 0.4-6.3h-4.2l0.1-1.6h5.8l-0.5 7.9zm-4-4.4h1.6l-0.3 4.3h-1.6z"/>
	<path id="path843" class="st1" d="m51.8 10.7c0.1-2.3-0.4-3.9-1.4-4.9-1-0.9-2.7-1.4-5.1-1.4h-9.2c-0.6 0-1 0.3-1 0.9l-1 14.1c0 0.6 0.2 0.9 0.7 0.9h15.1c0.4 0 0.7-0.1 0.8-0.2s0.2-0.4 0.2-0.8zm-12.3 6.9 0.8-10.4h3.6c1.1 0 1.8 0.2 2.3 0.7 0.5 0.4 0.7 1.2 0.6 2.3l-0.7 7.4zm19.6-13.1h-5.1l-0.5 8.8c2.1 0 3.8-0.4 5.2-1.1zm14.9 0h-8v-3.5h-5.1l-0.1 5.4c0 0.6 0.2 0.8 0.7 0.8h8.4c0.4 0 0.6 0.3 0.5 0.8l-1.2 6.4c-0.2 1.2-0.6 2.1-1.2 2.6s-1.5 0.7-2.9 0.7h-1.1c-0.7 0.9-1.1 1.8-1.3 2.7h3c5 0 7.9-2.2 8.7-6.7l1.3-7c0.4-1.5-0.2-2.2-1.7-2.2m18.1 0h-4.9l-0.4 12.3c1.6 0 2.8-0.1 3.8-0.5 0.8-0.3 1.1-2 1.1-2.7zm4.1 0-1.1 8.8c-0.2 2-1.1 3.3-2.5 3.8-0.9 0.4-2.3 0.6-4.1 0.6h-4.6l-0.6-13.2h-5.3l1.1 15.1c0 0.6 0.3 0.9 0.8 0.9h8.5c3.5 0 6-0.3 7.5-1 2.4-1 3.8-3.3 4.2-6.7l1.1-8.3zm13.2 0h-5.1l-0.7 16h5.1zm16.2 6.4c0.1-2.2-0.4-3.8-1.4-4.9-1-1-2.7-1.5-4.9-1.5h-7.8c0.1 1.3 0.5 2.2 1 2.8h4.4c1.4 0 2.4 0.3 2.9 0.8 0.5 0.6 0.7 1.5 0.7 2.8l-0.4 9.5h5.1zm8.2-6.4h-5.1l-0.5 8.8c2.1 0 3.8-0.4 5.2-1.1zm28.5 1.7c0.1-1.2-0.6-1.8-1.8-1.8h-16.9c0.1 1.1 0.5 2 1.1 2.7h11.5c0.5 0 0.7 0.3 0.6 0.8l-1.2 7.1c-0.3 1.8-1.3 2.6-2.9 2.6h-0.4c-0.5 0.8-0.9 1.7-1.1 2.7h1.5c2.5 0 4.4-0.6 5.7-1.7s2.2-2.8 2.6-5.1l1.3-7v-0.3m-12.4 3.9c-2.5 0.2-4.2 0.5-5.1 1.1l-0.8 12.3h5.1zm24.1-0.2c0.1-1.9-0.3-3.3-1.2-4.2-0.9-0.8-2.4-1.3-4.5-1.3h-3.7c-0.1 1.2 0.2 2.2 0.7 2.8h1.3c1.7 0 2.5 0.9 2.4 2.6l-0.3 7.8h-4.2c-0.6 0.7-1 1.6-1.2 2.8h9.6c0.5 0 0.8-0.3 0.8-0.9zm15.7 7.7c-0.3 0-0.3-0.1 0-0.2 1.3-0.7 1.9-2.1 2-3.9l0.2-3.6c0.2-3.6-1.6-5.4-5.4-5.4h-9.5c0.2 1.5 0.6 2.4 1 2.8h5.4c1.3 0 2.1 0.2 2.7 0.7 0.5 0.5 0.7 1.3 0.7 2.4l-0.2 4.6c0 1-0.3 1.7-0.8 2.1s-1.2 0.6-2.2 0.6h-6.2c-0.7 0.6-1.2 1.5-1.5 2.8h15.9c0.7-0.7 1.2-1.6 1.5-2.8h-3.6z"/>
</g>
<path id="path847" class="st1" d="m210.2 17.3c0 0.4 0.1 0.9 0.1 1.4v0.2c-2.6-1.5-5.6-2.4-8.1-2.4-1.8 0-3.4 0.5-4.6 1.5-1.2 1.1-2 2.7-2.1 5.3v12.8c-0.4 0.1-0.9 0.1-1.3 0.2v-13.3c0.2-2.7 1.1-4.6 2.5-5.9 1.5-1.4 3.5-1.9 5.6-1.9 2.5-0.1 5.3 0.8 7.9 2.1m-0.1-1.4c-2.5-1.2-5.3-1.9-7.8-1.9-2.4 0-4.6 0.6-6.3 2s-2.8 3.5-3.2 6.8v13.5h-0.4-1v-13.5c0.3-3.6 1.7-6.1 3.6-7.8 2-1.6 4.5-2.3 7.2-2.3 2.5 0 5.1 0.6 7.5 1.6 0.2 0.5 0.3 1 0.4 1.6m-0.9-3.4c-2.2-0.8-4.5-1.2-6.7-1.2-3.2 0-6.2 0.9-8.4 2.7s-3.7 4.7-3.9 8.9v13.3c-0.5-0.1-1-0.1-1.5-0.3v-12.2l0.1-1.5c0.4-4.2 2-7.2 4.3-9.2 2.6-2.2 5.9-3.1 9.4-3.1 2 0 4 0.3 6 0.9 0.2 0.6 0.5 1.1 0.7 1.7m-1.6-3.2c-1.4-0.3-3.1-0.5-4.9-0.5-4.1 0-8.5 1-10.6 3.7-0.3-0.3-0.7-0.7-1-0.9 2.6-3.1 7.3-4.1 11.6-4.2 1.3 0 2.6 0.1 3.8 0.3 0.4 0.5 0.8 1 1.1 1.6m-2.2-2.9c-1-0.1-2-0.2-3.1-0.2-4.4 0-9.3 1.2-12.4 4.6-0.4-0.2-0.9-0.4-1.4-0.6 3.5-4 9-5.4 13.7-5.4 0.5 0 1 0 1.5 0.1 0.6 0.5 1.2 1 1.7 1.5m-3.6-2.9c-4.7 0.1-11.1 1.6-14.8 6.3l-1.5-0.3c3.5-4.7 9.2-6.7 14.1-7.2 0.8 0.4 1.5 0.8 2.2 1.2m-11.1 0.5c-0.5 0.3-1.1 0.6-1.6 0.9-2.3-0.7-4.6-0.9-6.6-0.9h-0.1c0.7-0.5 1.4-0.9 2.1-1.2 2 0.1 4.1 0.5 6.2 1.2m-10.1 1.3c0.6 0 1.2-0.1 1.8-0.1 1.7 0 3.5 0.2 5.3 0.6-0.4 0.3-0.9 0.7-1.3 1.1-1.3-0.2-2.7-0.4-4-0.4-1.2 0-2.3 0.1-3.3 0.3l1.5-1.5m-2.5 2.9c1.2-0.2 2.5-0.3 3.8-0.3 1.2 0 2.4 0.1 3.6 0.3-0.3 0.4-0.6 0.8-0.9 1.2-0.9-0.1-1.8-0.2-2.7-0.1-1.7 0-3.4 0.2-4.8 0.5 0.3-0.6 0.6-1.1 1-1.6m-2 3.4c2-0.6 4.1-0.9 6.2-0.9 3.2 0 6.3 0.8 8.8 2.6-0.3 0.3-0.6 0.7-0.9 1-2.2-1.6-4.9-2.3-7.9-2.3-2.3 0-4.6 0.4-6.8 1.2 0.2-0.6 0.4-1.1 0.6-1.6m-1.1 3.3c2.4-1 5-1.6 7.5-1.6s5 0.6 6.9 2.1c-0.2 0.4-0.4 0.8-0.6 1.3-1.7-1.4-3.8-2-6.2-2-2.5 0-5.3 0.7-7.7 1.8-0.1-0.6 0-1.1 0.1-1.6m-0.3 3c2.6-1.3 5.3-2.1 7.9-2.1 2.1 0 4.1 0.6 5.6 1.9l0.2 0.2c-0.2 0.5-0.3 1.1-0.4 1.6-0.2-0.3-0.5-0.6-0.8-0.9-1.2-1.1-2.7-1.5-4.6-1.5-2.5 0-5.3 0.9-7.9 2.3v-0.8c-0.1-0.2 0-0.5 0-0.7m36.3 0.7c0-10.3-8.3-18.6-18.6-18.6s-18.6 8.3-18.6 18.6 8.3 18.6 18.6 18.6 18.6-8.3 18.6-18.6"/>
</svg>
